<svg width="64" height="53" viewBox="0 0 64 53" fill="none" xmlns="http://www.w3.org/2000/svg">
<path d="M59.2 6.23529H28.112L26.32 2.63441C25.9264 1.84443 25.3125 1.17838 24.5485 0.712482C23.7845 0.246584 22.9013 -0.000330357 22 3.31729e-07H4.8C3.52696 3.31729e-07 2.30606 0.492699 1.40589 1.36971C0.505713 2.24672 0 3.43619 0 4.67647V48.3235C0 49.5638 0.505713 50.7533 1.40589 51.6303C2.30606 52.5073 3.52696 53 4.8 53H59.2C60.473 53 61.6939 52.5073 62.5941 51.6303C63.4943 50.7533 64 49.5638 64 48.3235V10.9118C64 9.67149 63.4943 8.48201 62.5941 7.605C61.6939 6.72799 60.473 6.23529 59.2 6.23529ZM60.8 48.3235C60.8 48.737 60.6314 49.1334 60.3314 49.4258C60.0313 49.7181 59.6243 49.8824 59.2 49.8824H4.8C4.37565 49.8824 3.96869 49.7181 3.66863 49.4258C3.36857 49.1334 3.2 48.737 3.2 48.3235V4.67647C3.2 4.26305 3.36857 3.86655 3.66863 3.57422C3.96869 3.28188 4.37565 3.11765 4.8 3.11765H22C22.2999 3.11706 22.5939 3.19859 22.8485 3.35294C23.1031 3.50729 23.3081 3.72823 23.44 3.99059L27.904 12.9538C28.2976 13.7438 28.9115 14.4099 29.6755 14.8758C30.4395 15.3417 31.3227 15.5886 32.224 15.5882H56C56.4243 15.5882 56.8313 15.424 57.1314 15.1317C57.4314 14.8393 57.6 14.4428 57.6 14.0294C57.6 13.616 57.4314 13.2195 57.1314 12.9272C56.8313 12.6348 56.4243 12.4706 56 12.4706H32.224C31.9241 12.4712 31.6301 12.3896 31.3755 12.2353C31.1209 12.081 30.9159 11.86 30.784 11.5976L29.664 9.35294H59.2C59.6243 9.35294 60.0313 9.51717 60.3314 9.80951C60.6314 10.1018 60.8 10.4983 60.8 10.9118V48.3235ZM48 37.4118H30.112C29.7757 36.509 29.1622 35.729 28.3549 35.1777C27.5477 34.6265 26.5858 34.3308 25.6 34.3308C24.6142 34.3308 23.6523 34.6265 22.8451 35.1777C22.0378 35.729 21.4243 36.509 21.088 37.4118H16C15.5757 37.4118 15.1687 37.576 14.8686 37.8683C14.5686 38.1607 14.4 38.5572 14.4 38.9706C14.4 39.384 14.5686 39.7805 14.8686 40.0728C15.1687 40.3652 15.5757 40.5294 16 40.5294H21.088C21.4243 41.4322 22.0378 42.2122 22.8451 42.7635C23.6523 43.3147 24.6142 43.6104 25.6 43.6104C26.5858 43.6104 27.5477 43.3147 28.3549 42.7635C29.1622 42.2122 29.7757 41.4322 30.112 40.5294H48C48.4243 40.5294 48.8313 40.3652 49.1314 40.0728C49.4314 39.7805 49.6 39.384 49.6 38.9706C49.6 38.5572 49.4314 38.1607 49.1314 37.8683C48.8313 37.576 48.4243 37.4118 48 37.4118ZM25.6 40.5294C25.2836 40.5294 24.9742 40.438 24.7111 40.2667C24.448 40.0954 24.2429 39.852 24.1218 39.5671C24.0007 39.2823 23.969 38.9689 24.0307 38.6665C24.0925 38.3641 24.2449 38.0863 24.4686 37.8683C24.6924 37.6503 24.9775 37.5019 25.2879 37.4417C25.5982 37.3816 25.9199 37.4124 26.2123 37.5304C26.5047 37.6484 26.7545 37.8482 26.9304 38.1046C27.1062 38.3609 27.2 38.6623 27.2 38.9706C27.2 39.384 27.0314 39.7805 26.7314 40.0728C26.4313 40.3652 26.0243 40.5294 25.6 40.5294ZM48 24.9412H42.912C42.5757 24.0384 41.9622 23.2584 41.1549 22.7071C40.3477 22.1559 39.3858 21.8602 38.4 21.8602C37.4142 21.8602 36.4523 22.1559 35.6451 22.7071C34.8378 23.2584 34.2243 24.0384 33.888 24.9412H16C15.5757 24.9412 15.1687 25.1054 14.8686 25.3977C14.5686 25.6901 14.4 26.0866 14.4 26.5C14.4 26.9134 14.5686 27.3099 14.8686 27.6023C15.1687 27.8946 15.5757 28.0588 16 28.0588H33.888C34.2243 28.9616 34.8378 29.7416 35.6451 30.2929C36.4523 30.8441 37.4142 31.1398 38.4 31.1398C39.3858 31.1398 40.3477 30.8441 41.1549 30.2929C41.9622 29.7416 42.5757 28.9616 42.912 28.0588H48C48.4243 28.0588 48.8313 27.8946 49.1314 27.6023C49.4314 27.3099 49.6 26.9134 49.6 26.5C49.6 26.0866 49.4314 25.6901 49.1314 25.3977C48.8313 25.1054 48.4243 24.9412 48 24.9412ZM38.4 28.0588C38.0835 28.0588 37.7742 27.9674 37.5111 27.7961C37.248 27.6248 37.0429 27.3814 36.9218 27.0965C36.8007 26.8117 36.769 26.4983 36.8307 26.1959C36.8925 25.8935 37.0449 25.6158 37.2686 25.3977C37.4924 25.1797 37.7775 25.0313 38.0879 24.9711C38.3982 24.911 38.7199 24.9419 39.0123 25.0598C39.3047 25.1778 39.5545 25.3776 39.7304 25.634C39.9062 25.8903 40 26.1917 40 26.5C40 26.9134 39.8314 27.3099 39.5314 27.6023C39.2313 27.8946 38.8243 28.0588 38.4 28.0588Z" fill="#FFAD1F"/>
</svg>
