<svg width="53" height="53" viewBox="0 0 53 53" fill="none" xmlns="http://www.w3.org/2000/svg">
<path fill-rule="evenodd" clip-rule="evenodd" d="M12.5137 11.7778C15.766 11.7778 18.4025 9.14117 18.4025 5.88888C18.4025 2.63654 15.766 0 12.5137 0C9.26148 0 6.62491 2.63654 6.62491 5.88888C6.62491 9.14117 9.26148 11.7778 12.5137 11.7778ZM12.5137 8.83333C14.1399 8.83333 15.4581 7.5151 15.4581 5.88888C15.4581 4.26271 14.1399 2.94444 12.5137 2.94444C10.8875 2.94444 9.56932 4.26271 9.56932 5.88888C9.56932 7.5151 10.8875 8.83333 12.5137 8.83333ZM4.96166 15.9611C6.42116 15.0833 8.03116 14.7222 9.63675 14.7222H15.3907C16.9963 14.7222 18.6063 15.0833 20.0658 15.9611C21.5221 16.8369 22.5674 18.0699 23.2923 19.4095C24.6601 21.937 25.0275 25.0981 25.0275 28.1835V28.3139C25.0275 28.3575 25.0255 28.4009 25.0217 28.4442L25.0101 28.574L25.0089 28.5941C25.008 28.6092 25.0071 28.63 25.0063 28.6578C25.0045 28.7139 25.0029 28.7897 25.002 28.8895C25.0001 29.0895 25.0008 29.3682 25.0048 29.7476C25.0065 29.9169 25.0088 30.0999 25.0113 30.2961V30.3014C25.0186 30.9003 25.0275 31.6164 25.0275 32.3889C25.0275 34.8282 23.0501 36.8055 20.6108 36.8055C20.3604 36.8055 20.1144 36.7846 19.8747 36.7443V49.3194C19.8747 51.2669 18.3578 52.8772 16.4139 52.9933C14.47 53.1096 12.772 51.6915 12.5399 49.758L12.5137 49.5395L12.4875 49.758C12.2555 51.6915 10.5575 53.1096 8.61357 52.9933C6.66967 52.8772 5.15271 51.2669 5.15271 49.3194V36.7443C4.91301 36.7846 4.66705 36.8055 4.41661 36.8055C1.97739 36.8055 0 34.8282 0 32.3889C0 31.6152 0.00883347 30.8985 0.0162092 30.299L0.0162534 30.2964C0.0186678 30.1001 0.0209199 29.9169 0.0226866 29.7476C0.0266321 29.3682 0.0273243 29.0895 0.0254693 28.8895C0.0245418 28.7897 0.0230252 28.7139 0.021185 28.6578C0.0202869 28.63 0.0193594 28.6092 0.0185497 28.5941L0.0172987 28.5739L0.00577115 28.4442C0.0019287 28.4009 0 28.3575 0 28.3139V28.1835C2.94441e-05 25.0981 0.3673 21.937 1.73509 19.4095C2.46002 18.0699 3.50532 16.8369 4.96166 15.9611ZM20.6108 33.8611C20.3403 33.8611 20.0909 33.7894 19.8758 33.665L19.8747 25.0278H16.9303V49.3194C16.9303 49.7088 16.6269 50.0309 16.2381 50.0542C15.8494 50.0775 15.5098 49.7938 15.4634 49.4072L13.9755 37.0075C13.8867 36.2676 13.259 35.7106 12.5137 35.7106C11.7685 35.7106 11.1407 36.2676 11.052 37.0075L9.56402 49.4072C9.51765 49.7938 9.17801 50.0775 8.78935 50.0542C8.40054 50.0309 8.09712 49.7088 8.09712 49.3194V25.0278H5.15271L5.15165 33.665C4.93661 33.7894 4.6872 33.8611 4.41661 33.8611C3.60354 33.8611 2.94441 33.202 2.94441 32.3889C2.94441 31.6345 2.95303 30.9328 2.96045 30.3314C2.96285 30.1362 2.96513 29.9507 2.96693 29.7782C2.97463 29.0387 2.97233 28.5632 2.95018 28.3138L2.94441 28.2487V28.1835C2.94444 25.2454 3.31113 22.6837 4.32461 20.8109C4.84518 19.8489 5.55059 19.0427 6.47917 18.4843C7.40872 17.9253 8.47547 17.6667 9.63675 17.6667H15.3907C16.552 17.6667 17.6187 17.9253 18.5483 18.4843C19.4768 19.0427 20.1823 19.8489 20.7029 20.8109C21.7163 22.6837 22.083 25.2454 22.083 28.1835V28.2487L22.0773 28.3138C22.0551 28.5632 22.0529 29.0387 22.0605 29.7782C22.0623 29.9484 22.0645 30.1325 22.067 30.3251V30.3323C22.0744 30.9337 22.083 31.6344 22.083 32.3889C22.083 33.202 21.4239 33.8611 20.6108 33.8611ZM47.1104 5.88888C47.1104 9.14117 44.4738 11.7778 41.2215 11.7778C37.9692 11.7778 35.3327 9.14117 35.3327 5.88888C35.3327 2.63654 37.9692 0 41.2215 0C44.4738 0 47.1104 2.63654 47.1104 5.88888ZM44.1659 5.88888C44.1659 7.5151 42.8476 8.83333 41.2215 8.83333C39.5953 8.83333 38.2771 7.5151 38.2771 5.88888C38.2771 4.26271 39.5953 2.94444 41.2215 2.94444C42.8476 2.94444 44.1659 4.26271 44.1659 5.88888ZM46.295 15.3754C45.137 14.7923 44.032 14.7224 43.3985 14.7222L42.7174 14.7225L42.707 14.7224L37.5719 14.7225C36.9392 14.7227 35.8345 14.7926 34.6764 15.3757C32.7172 16.3621 31.5991 17.9774 30.935 19.4046C30.2999 20.7694 29.9337 22.2804 29.6619 23.5382C29.4039 24.7321 29.3975 24.7633 29.2506 25.518C29.1102 26.2397 28.8355 27.6517 28.0587 31.5197C27.5786 33.9111 29.128 36.2392 31.5194 36.7194C31.9023 36.7963 32.2834 36.821 32.6554 36.7988L31.8616 41.3629C31.6418 42.6273 32.2795 44.0075 33.6429 44.4938C34.9788 44.9702 37.4003 45.6389 40.4854 45.6389C43.5704 45.6389 45.9919 44.9702 47.3278 44.4938C48.6912 44.0075 49.329 42.6273 49.1092 41.3629L48.3154 36.7985C48.6877 36.8208 49.069 36.796 49.452 36.7191C51.8435 36.2389 53.3928 33.9108 52.9127 31.5194C52.1359 27.6507 51.861 26.2384 51.7206 25.5168C51.5738 24.7622 51.5676 24.7318 51.3095 23.5379C51.0378 22.2802 50.6716 20.7691 50.0365 19.4043C49.3724 17.9773 48.2543 16.362 46.295 15.3754ZM42.6914 17.6669L43.398 17.6667C43.8173 17.6668 44.3978 17.7167 44.9709 18.0053C46.1384 18.5931 46.8705 19.58 47.367 20.6467C47.8531 21.6914 48.1646 22.9247 48.4317 24.16C48.6853 25.3338 48.6889 25.3518 48.8271 26.062L48.8305 26.0792C48.9721 26.8069 49.2478 28.2244 50.0259 32.099C50.1859 32.8962 49.6695 33.6722 48.8723 33.8322C48.5023 33.9066 48.1362 33.8358 47.8334 33.6564L46.087 24.052L43.1902 24.5787L44.1112 29.6441L44.0757 29.6049L46.1917 41.7719C45.0535 42.1635 43.0372 42.6944 40.4854 42.6944C37.9335 42.6944 35.9173 42.1635 34.779 41.7719L36.8941 29.6106L36.8587 29.6498L37.7806 24.5787L34.8837 24.052L33.1372 33.6572C32.8345 33.8361 32.4687 33.9067 32.0992 33.8325C31.302 33.6725 30.7855 32.8965 30.9456 32.0993C31.7236 28.2245 31.9994 26.8072 32.141 26.0795L32.1444 26.0621C32.2826 25.3521 32.2862 25.3341 32.5398 24.1603C32.8069 22.9248 33.1184 21.6916 33.6045 20.6469C34.1009 19.5801 34.8331 18.5934 36.0005 18.0056C36.5737 17.717 37.1538 17.6671 37.573 17.6669L42.6803 17.6668L42.6914 17.6669Z" fill="#FA896B"/>
<path d="M35.7529 52.872C34.6665 52.7149 33.8605 51.7841 33.8605 50.6864V47.1111C35.7826 47.3758 37.5517 47.5393 39.2813 47.6041L38.1867 51.3118C37.8759 52.3644 36.8392 53.029 35.7529 52.872ZM41.6119 47.6318L42.7978 51.3564C43.128 52.3937 44.1652 53.0357 45.2409 52.8685C46.3168 52.7014 47.1103 51.7751 47.1103 50.6864V47.2467C45.1809 47.4778 43.3901 47.6071 41.6119 47.6318Z" fill="#FA896B"/>
</svg>
