<svg width="52" height="53" viewBox="0 0 52 53" fill="none" xmlns="http://www.w3.org/2000/svg">
<path d="M25.0596 20.6991C24.5768 20.6991 24.1508 20.3223 24.1508 19.8378C24.1508 19.3533 24.5484 18.9764 25.0596 18.9764C25.5141 18.9764 25.8833 19.2725 25.9401 19.6763C26.0537 20.2415 26.6218 20.5914 27.1614 20.5107C27.7295 20.403 28.1271 19.8916 28.0419 19.3533C27.8431 18.3035 27.1046 17.496 26.1105 17.146V16.4462C26.1105 15.8809 25.6277 15.4233 25.0312 15.4233C24.4348 15.4233 23.952 15.8809 23.952 16.4462V17.173C22.8159 17.5767 21.9922 18.6265 21.9922 19.8378C21.9922 21.4259 23.3555 22.7179 25.0312 22.7179C25.5141 22.7179 25.9401 23.0947 25.9401 23.5793C25.9401 24.0638 25.5425 24.4406 25.0312 24.4406C24.6052 24.4406 24.2076 24.1445 24.1508 23.7408C24.0372 23.2024 23.5259 22.8256 22.9295 22.9332C22.3614 23.0409 21.9638 23.5523 22.0774 24.0907C22.2762 25.1135 23.0147 25.9211 24.0088 26.271V26.9977C24.0088 27.563 24.4916 28.0206 25.088 28.0206C25.6845 28.0206 26.1673 27.563 26.1673 26.9977V26.2441C27.3034 25.8403 28.1271 24.7905 28.1271 23.5793C28.1271 21.9911 26.7638 20.6991 25.088 20.6991H25.0596Z" fill="#4570EA"/>
<path d="M12.6772 22.7989C12.6772 31.87 19.295 33.0274 25.0607 33.0274C30.8264 33.0274 37.4441 31.87 37.4441 22.7989C37.4441 18.2499 34.8311 13.1625 30.8832 10.4977C31.082 9.17877 30.8264 7.72524 30.1163 6.83697L33.2406 2.39563C33.4678 2.07263 33.4678 1.64195 33.2406 1.31894C33.0418 0.995937 32.6441 0.780599 32.2181 0.834434C31.9057 0.861351 31.5364 0.888268 31.082 0.888268C29.7187 0.888268 29.0938 0.699847 28.3554 0.484509C27.5601 0.269172 26.6796 0 25.0039 0C23.3281 0 22.4477 0.242254 21.6808 0.484509C20.9423 0.699847 20.3175 0.888268 18.9542 0.888268C18.5281 0.888268 18.1589 0.861351 17.8181 0.834434C17.4204 0.807516 17.0228 0.995937 16.7956 1.31894C16.5968 1.64195 16.5968 2.07263 16.7956 2.39563L19.9483 6.91772C19.2098 7.85983 18.9826 9.23261 19.153 10.4708C15.2051 13.1356 12.5636 18.223 12.5636 22.7989H12.6772ZM35.3139 22.7989C35.3139 29.6359 31.224 31.0086 25.0607 31.0086C18.8974 31.0086 14.8074 29.6089 14.8074 22.7989C14.8074 17.2809 19.3802 10.6323 25.0607 10.6323C30.7412 10.6323 35.3139 17.2809 35.3139 22.7989ZM22.3341 2.44947C23.0725 2.23413 23.6974 2.04571 25.0323 2.04571C26.3672 2.04571 27.0204 2.23413 27.7589 2.44947C28.4122 2.63789 29.1222 2.85322 30.3151 2.90706L28.3554 5.70645C26.2252 4.79127 24.0666 4.71051 21.7376 5.70645L19.7778 2.90706C20.9707 2.85322 21.6808 2.63789 22.3341 2.44947ZM21.9364 7.85983C24.0098 6.7293 26.0832 6.70239 28.2133 7.88674C28.5258 8.10208 28.753 8.69426 28.8098 9.36719C27.6453 8.88268 26.3672 8.61351 25.0607 8.61351C23.7542 8.61351 22.5045 8.88268 21.3116 9.36719C21.3684 8.69426 21.5956 8.07516 21.9364 7.85983ZM50.9921 37.8456C50.7648 36.742 49.8276 35.9345 48.5779 35.7999C46.9021 35.5846 45.1696 35.7999 43.6074 36.419L36.592 39.2184C36.6489 38.8685 36.6489 38.4916 36.592 38.1417C36.5352 37.8187 36.4216 37.5226 36.2796 37.3073C35.7116 36.2306 34.4335 35.5038 33.0418 35.45L18.8974 34.9116C16.3696 34.8309 13.8985 35.3423 11.7116 36.419L8.98494 37.7649C8.78612 37.4418 8.5589 37.1188 8.21807 36.9035C7.67843 36.5536 6.99677 36.419 6.37192 36.5267L2.02635 37.3073C1.3731 37.4149 0.805051 37.7649 0.43582 38.3032C0.0665895 38.8146 -0.075422 39.4606 0.0381875 40.0797L2.22517 51.0889C2.45239 52.2194 3.50328 53 4.66778 53C4.80979 53 4.9802 53 5.12221 52.9462L9.46778 52.1656C10.5755 51.9771 11.3423 51.0889 11.4275 50.066C13.2169 49.8507 15.063 49.8507 16.7956 50.1737L25.7139 51.8964C26.4808 52.031 27.2477 52.1117 28.0429 52.1117C30.4855 52.1117 32.9565 51.4119 34.9731 50.1199L49.7708 40.4297C50.708 39.8106 51.1909 38.8415 50.9921 37.8456ZM9.07014 50.2006L4.72458 50.9812C4.52576 50.9812 4.35535 50.9005 4.29854 50.712L2.11156 39.7029C2.08316 39.5145 2.19677 39.353 2.39558 39.2991L6.74115 38.5185C6.74115 38.5185 6.76955 38.5185 6.79795 38.5185C6.93997 38.5185 7.13878 38.6531 7.16718 38.7877L7.28079 39.4068L9.26896 49.3393L9.35417 49.7699C9.38257 49.9584 9.26896 50.1199 9.07014 50.1737V50.2006ZM48.5779 38.7608L33.7802 48.451C31.5932 49.8507 28.753 50.389 26.14 49.9045L17.25 48.1818C16.0855 47.9665 14.8642 47.8319 13.6429 47.8319C12.8193 47.8319 11.9956 47.8857 11.2003 47.9934L11.0867 47.3743L9.55298 39.7567L12.7056 38.1955C14.5802 37.2803 16.7388 36.7958 18.8406 36.9035L32.9849 37.4418C33.6098 37.4418 34.1778 37.7649 34.4335 38.2224C34.4619 38.3032 34.4903 38.3839 34.5187 38.4647C34.6039 38.8954 34.3767 39.3799 33.8938 39.7029L32.1613 40.9411L31.7068 41.1295L24.2938 41.5602C23.6974 41.5871 23.2713 42.0716 23.2997 42.6369C23.3281 43.2021 23.7258 43.6597 24.4358 43.579L32.0193 43.1483C32.0193 43.1483 32.2465 43.1214 32.3601 43.0675L33.0702 42.7715C33.0702 42.7715 33.0702 42.7715 33.0986 42.7715L44.4311 38.2224C45.6524 37.7379 46.9873 37.5764 48.2938 37.7379C48.6347 37.7918 48.8335 37.9264 48.8903 38.1686C48.9471 38.4109 48.7483 38.5993 48.5494 38.7339L48.5779 38.7608Z" fill="#4570EA"/>
</svg>
