<svg width="35" height="26" viewBox="0 0 35 26" fill="none" xmlns="http://www.w3.org/2000/svg">
<path d="M20.1369 26C22.8983 26 25.1842 23.7425 24.6732 21.0288C24.3528 19.3274 23.8679 17.6594 23.2235 16.0502C21.9602 12.8958 20.1087 10.0295 17.7745 7.61522C15.4403 5.2009 12.6692 3.28575 9.61948 1.97913C8.11383 1.33406 6.55481 0.843538 4.96489 0.512196C2.26154 -0.0511822 0 2.23858 0 5V21C0 23.7614 2.23858 26 5 26H20.1369Z" fill="#5D87FF"/>
<g style="mix-blend-mode:multiply">
<path d="M14.699 26C11.9376 26 9.65169 23.7425 10.1628 21.0288C10.4832 19.3274 10.968 17.6594 11.6124 16.0502C12.8757 12.8958 14.7273 10.0295 17.0614 7.61522C19.3956 5.2009 22.1667 3.28575 25.2165 1.97913C26.7221 1.33406 28.2811 0.843538 29.8711 0.512196C32.5744 -0.0511822 34.8359 2.23858 34.8359 5V21C34.8359 23.7614 32.5974 26 29.8359 26H14.699Z" fill="#49BEFF"/>
</g>
</svg>
