<svg width="69" height="59" viewBox="0 0 69 59" fill="none" xmlns="http://www.w3.org/2000/svg">
<path d="M44.853 6.65336H44.1249V5.14697H41.2123V6.65336H40.4842C38.5911 6.65336 37.1348 7.90868 37.1348 9.54059V11.298C37.1348 12.93 38.5911 14.1853 40.4842 14.1853H44.9986C45.2899 14.1853 45.4355 14.3108 45.4355 14.5619V16.3193C45.4355 16.5704 45.2899 16.6959 44.9986 16.6959H40.4842C40.1929 16.6959 40.0473 16.5704 40.0473 16.3193V15.4406H37.1348V16.3193C37.1348 17.9512 38.5911 19.2066 40.4842 19.2066H41.2123V20.7129H44.1249V19.2066H44.853C46.7461 19.2066 48.2024 17.9512 48.2024 16.3193V14.5619C48.2024 12.93 46.7461 11.6746 44.853 11.6746H40.3386C40.0473 11.6746 39.9017 11.5491 39.9017 11.298V9.54059C39.9017 9.28953 40.0473 9.164 40.3386 9.164H44.853C45.1442 9.164 45.2899 9.28953 45.2899 9.54059V10.4193H48.2024V9.54059C48.2024 7.90868 46.6005 6.65336 44.853 6.65336ZM19.6596 51.9704H42.9599C43.9792 51.9704 44.853 51.7194 45.7268 51.3428L65.8232 40.7981C68.2989 39.5427 69.1726 36.6555 67.7164 34.5215C66.9882 33.5172 65.8232 32.764 64.367 32.3874C62.9107 32.1364 61.6001 32.2619 60.2894 32.8895L43.8336 41.4257C44.7074 40.6725 45.1443 39.5427 45.1443 38.413C45.1443 35.9023 42.8142 33.7683 39.7561 33.7683H19.6596V31.2576H0V59.0002H19.6596V51.9704ZM39.9017 36.2789C41.2123 36.2789 42.3773 37.1576 42.3773 38.413C42.3773 39.6683 41.358 40.547 39.9017 40.547H31.0185V45.3172H42.0861L61.8913 35.0236C62.4738 34.7725 63.0563 34.647 63.7845 34.7725C64.367 34.8981 64.9495 35.2747 65.2407 35.7768C65.9689 36.781 65.532 38.0364 64.367 38.664L44.1249 49.2087C43.688 49.4598 43.2511 49.4598 42.8142 49.4598H19.6596V36.2789H39.9017ZM16.7471 56.4896H2.91253V33.7683H16.7471V51.9704V56.4896Z" fill="#13DEB9"/>
<path d="M11.2133 46.6978H8.30078V53.0999H11.2133V46.6978Z" fill="#13DEB9"/>
<path d="M16.748 25.9851H68.4455V0H16.748V25.9851ZM19.6606 2.51064H65.533V23.4745H19.6606V2.51064Z" fill="#13DEB9"/>
<path d="M57.6688 11.0469C56.5038 11.0469 55.4844 11.9256 55.4844 12.9299C55.4844 13.9341 56.5038 14.8128 57.6688 14.8128C58.8338 14.8128 59.8532 13.9341 59.8532 12.9299C59.9988 11.9256 58.9794 11.0469 57.6688 11.0469Z" fill="#13DEB9"/>
<path d="M27.3778 14.8128C28.5842 14.8128 29.5622 13.9698 29.5622 12.9299C29.5622 11.8899 28.5842 11.0469 27.3778 11.0469C26.1713 11.0469 25.1934 11.8899 25.1934 12.9299C25.1934 13.9698 26.1713 14.8128 27.3778 14.8128Z" fill="#13DEB9"/>
</svg>
